Coordinates
version=1
nRows=8
nColumns=36
inDegrees=yes

Units are S.I. units (second, meters, Newtons, ...)
If the header above contains a line with 'inDegrees', this indicates whether rotational values are in degrees (yes) or radians (no).

endheader
time	pelvis_tilt	pelvis_list	pelvis_rotation	pelvis_tx	pelvis_ty	pelvis_tz	hip_flexion_r	hip_adduction_r	hip_rotation_r	knee_angle_r	knee_angle_r_beta	ankle_angle_r	subtalar_angle_r	mtp_angle_r	hip_flexion_l	hip_adduction_l	hip_rotation_l	knee_angle_l	knee_angle_l_beta	ankle_angle_l	subtalar_angle_l	mtp_angle_l	lumbar_extension	lumbar_bending	lumbar_rotation	arm_flex_r	arm_add_r	arm_rot_r	elbow_flex_r	pro_sup_r	arm_flex_l	arm_add_l	arm_rot_l	elbow_flex_l	pro_sup_l
      5.11666670	     -3.40144390	     -3.52631201	      0.70054907	     -0.37015513	      1.20832204	     -0.07106624	     -2.18620004	      4.53450850	      0.61247389	      0.20615793	      0.00359813	      0.57345463	    -13.12132584	     -7.49999987	      1.25542916	     -5.36609046	      6.13422640	      0.26515444	      0.00462782	      3.68297786	     -9.30263490	     -7.49999987	     -1.38501083	      2.09819022	     -6.25730020	     -4.35995697	     -4.33287996	     -2.59136968	     29.15968625	     73.26984663	      0.10575977	     -8.84387162	      9.51447094	     30.04305946	     76.63974824
      5.13333330	     -3.25393012	     -3.53409965	      0.61162283	     -0.37022865	      1.20841841	     -0.07108234	     -2.33410534	      4.58253439	      0.54434572	      0.20552359	      0.00358706	      0.48589648	    -13.27602380	     -7.49999987	      1.09535197	     -5.38087758	      6.06323062	      0.26368927	      0.00460225	      3.66329776	     -9.36268813	     -7.49999987	     -1.63294725	      2.10951002	     -6.19277524	     -4.32835501	     -4.34781221	     -2.46993517	     29.19094696	     72.85807953	      0.05450876	     -8.83598322	      9.46898275	     30.19822566	     76.16276829
      5.15000000	     -3.31973588	     -3.53779849	      0.72784030	     -0.37027674	      1.20844391	     -0.07102576	     -2.26649619	      4.62335205	      0.32829100	      0.21024599	      0.00366948	      0.53090702	    -13.14822322	     -7.49999987	      1.19303015	     -5.38186912	      6.20437009	      0.26428853	      0.00461271	      3.63508932	     -9.52413372	     -7.49999987	     -1.69582375	      2.17105167	     -6.34295655	     -4.30950558	     -4.34122450	     -2.46644936	     29.21948393	     72.37454032	      0.05334583	     -8.82545475	      9.41500937	     30.24639690	     75.61594578
      5.16666670	     -3.17513660	     -3.55885448	      0.80852593	     -0.37014818	      1.20579611	     -0.07106474	     -2.42228299	      4.66484138	      0.28366949	      0.21326431	      0.00372216	      0.43347513	    -13.43215646	     -7.49999987	      1.07557719	     -5.41595190	      6.24087841	      0.26496162	      0.00462445	      3.79351286	     -9.42239574	     -7.49999987	     -2.10708746	      2.26411459	     -6.08136555	     -4.42120185	     -4.39838839	     -2.62322612	     29.35571006	     73.74480599	      0.41341734	     -8.81903122	      9.52028309	     30.13582070	     78.03976398
      5.18333330	     -3.31597156	     -3.52919009	      0.89700888	     -0.37029429	      1.20540743	     -0.07103761	     -2.17457058	      4.62752249	      0.08211566	      0.21988929	      0.00383779	      0.90167911	    -13.13831194	     -7.49999987	      1.27313863	     -5.38793976	      6.38219450	      0.26232999	      0.00457852	      3.87252916	     -9.48064928	     -7.49999987	     -2.06263484	      2.28944241	     -6.18496034	     -4.49104459	     -4.39109420	     -2.68420771	     29.48290066	     73.16877282	      0.36078563	     -8.76977850	      9.22992883	     30.29985014	     77.30760764
      5.20000000	     -3.24277437	     -3.49501406	      1.11475268	     -0.37009701	      1.20566266	     -0.07119654	     -2.19383997	      4.56999221	     -0.00357755	      0.21869252	      0.00381690	      1.05751834	    -13.09833088	     -7.49999987	      1.20029512	     -5.37211375	      6.55652118	      0.27042001	      0.00471972	      3.82830095	     -9.61797939	     -7.49999987	     -2.17614560	      2.27238036	     -6.46566539	     -4.49382247	     -4.27863396	     -2.81658292	     29.48898054	     72.42816228	      0.27752157	     -8.78622383	      9.10595460	     30.43606540	     76.39047714
      5.21666670	     -3.22644962	     -3.40418396	      1.21267166	     -0.37033574	      1.20578358	     -0.07113344	     -2.16534667	      4.45548624	     -0.03610514	      0.22431449	      0.00391503	      1.29884547	    -13.16112441	     -7.49999987	      1.15431868	     -5.27755676	      6.53630675	      0.26719897	      0.00466350	      3.94152585	     -9.45860976	     -7.49999987	     -2.29934935	      2.23194607	     -6.37829761	     -4.69272676	     -4.30207910	     -2.81222983	     29.74281984	     72.14739983	      0.31389098	     -8.80361549	      9.13501758	     30.66060767	     76.06947945
      5.23333330	     -3.17664652	     -3.27452969	      1.36436890	     -0.37027802	      1.20552796	     -0.07116696	     -2.11996597	      4.29053466	     -0.10433695	      0.22654072	      0.00395388	      1.96014423	    -13.11030278	     -7.49999987	      1.09702176	     -5.13394265	      6.69901236	      0.26889869	      0.00469317	      4.04818226	     -9.41483921	     -7.49999987	     -2.40542295	      2.08037872	     -6.38193019	     -4.80580263	     -4.22690776	     -2.87235364	     29.92305046	     71.73397238	      0.28021303	     -8.88092904	      9.16710524	     30.92813386	     75.61258624
